<?xml version="1.0" standalone="no"?>
<!DOCTYPE svg PUBLIC "-//W3C//DTD SVG 20010904//EN"
 "http://www.w3.org/TR/2001/REC-SVG-20010904/DTD/svg10.dtd">
<svg version="1.0" xmlns="http://www.w3.org/2000/svg"
 width="640.000000pt" height="640.000000pt" viewBox="0 0 640.000000 640.000000"
 preserveAspectRatio="xMidYMid meet">

<g transform="translate(0.000000,640.000000) scale(0.100000,-0.100000)"
fill="#000000" stroke="none">
<path d="M3308 6249 c-17 -9 -18 -44 -18 -503 0 -383 3 -496 13 -503 6 -5 66
-17 132 -26 251 -34 441 -57 472 -57 17 0 74 -7 125 -14 51 -8 176 -24 278
-36 102 -11 235 -27 295 -35 146 -20 251 -32 424 -50 79 -9 147 -18 151 -20 4
-3 61 -9 126 -15 66 -6 126 -13 135 -15 8 -3 24 1 35 9 24 19 13 40 -38 70
-20 11 -76 44 -125 73 -48 28 -110 63 -138 79 -27 15 -120 68 -205 118 -85 49
-171 98 -190 109 -19 10 -62 34 -95 54 -33 19 -80 47 -105 61 -25 14 -125 72
-223 129 -98 56 -180 103 -182 103 -2 0 -95 53 -207 118 -112 65 -210 122
-218 126 -8 4 -24 12 -35 19 -231 137 -376 218 -387 217 -2 0 -11 -5 -20 -11z"/>
<path d="M3040 6223 c-63 -35 -422 -242 -440 -253 -8 -6 -35 -21 -60 -34 -25
-13 -161 -92 -304 -175 -142 -83 -261 -151 -263 -151 -2 0 -84 -47 -181 -104
-97 -57 -211 -122 -252 -145 -41 -23 -82 -46 -90 -51 -8 -5 -82 -48 -165 -95
-82 -47 -157 -90 -165 -95 -8 -6 -26 -16 -40 -23 -60 -30 -130 -80 -130 -93 0
-25 34 -33 106 -24 185 23 362 45 619 74 72 8 182 22 245 30 63 8 176 22 250
31 74 8 187 22 250 30 136 18 248 31 425 50 187 21 293 39 305 51 7 7 9 169 8
505 l-3 494 -35 2 c-21 1 -52 -8 -80 -24z"/>
<path d="M2870 5075 c-47 -7 -130 -19 -185 -25 -55 -6 -152 -18 -215 -25 -239
-28 -308 -36 -420 -50 -143 -17 -403 -49 -580 -70 -74 -9 -182 -23 -240 -30
-58 -8 -154 -19 -214 -25 -60 -6 -113 -13 -117 -16 -4 -2 -59 -8 -122 -13
-127 -11 -188 -32 -222 -79 -31 -42 -27 -130 9 -212 15 -36 34 -78 42 -95 15
-36 106 -254 158 -380 20 -49 41 -99 46 -110 5 -11 26 -60 46 -110 20 -49 60
-146 89 -215 29 -69 69 -165 89 -215 21 -49 43 -103 51 -120 7 -16 32 -75 55
-130 23 -55 45 -109 50 -120 5 -11 19 -45 30 -75 12 -30 30 -75 41 -100 12
-25 24 -54 29 -65 10 -25 87 -209 105 -250 7 -16 23 -57 36 -90 12 -33 31 -69
41 -80 33 -36 30 -40 259 355 306 529 389 674 389 680 0 4 8 18 19 31 10 13
33 51 51 84 18 33 103 182 190 330 141 243 181 312 227 395 8 14 25 43 39 65
13 22 33 56 44 77 21 39 324 563 340 588 22 33 40 85 36 97 -7 16 -81 16 -196
-2z"/>
<path d="M3383 5079 c-15 -15 -9 -30 114 -242 57 -98 103 -181 103 -184 0 -4
6 -14 14 -22 7 -9 28 -43 45 -76 18 -32 41 -71 52 -86 10 -14 23 -37 29 -50 5
-13 14 -31 20 -39 5 -8 64 -109 130 -225 66 -115 125 -217 130 -225 6 -8 13
-22 17 -30 4 -8 60 -107 125 -218 65 -112 118 -207 118 -211 0 -4 5 -12 12
-19 12 -12 50 -77 102 -172 13 -25 94 -166 180 -313 86 -148 156 -271 156
-275 0 -3 6 -13 14 -21 7 -9 28 -43 46 -76 71 -133 135 -235 148 -240 18 -7
49 20 58 49 3 11 12 35 19 51 8 17 32 75 55 130 47 113 77 182 91 207 5 10 9
23 9 31 0 7 9 29 20 50 11 20 20 41 20 47 0 5 13 38 29 72 16 35 41 92 56 128
14 36 30 74 35 85 5 11 27 65 50 120 23 55 45 109 50 120 5 11 27 65 50 120
46 112 63 150 84 198 8 17 24 57 36 87 12 30 28 69 35 85 14 30 95 224 161
385 19 47 39 94 44 105 35 77 80 197 80 214 0 38 -31 98 -61 120 -32 24 -212
61 -294 61 -24 0 -78 6 -121 14 -44 8 -108 17 -144 20 -61 6 -154 18 -360 47
-47 6 -134 17 -195 24 -60 7 -148 18 -195 24 -47 7 -137 18 -200 26 -63 8
-153 19 -200 26 -47 6 -137 17 -200 24 -141 16 -264 32 -392 51 -117 17 -160
18 -175 3z"/>
<path d="M3178 4953 c-13 -21 -28 -45 -31 -53 -4 -8 -16 -28 -27 -45 -10 -16
-30 -50 -43 -75 -22 -42 -257 -448 -277 -480 -6 -8 -15 -26 -20 -39 -6 -13
-24 -44 -40 -68 -17 -24 -30 -46 -30 -48 0 -2 -69 -122 -153 -267 -85 -145
-156 -268 -158 -273 -4 -9 -107 -189 -129 -225 -5 -8 -32 -55 -60 -105 -28
-49 -55 -97 -60 -105 -5 -8 -38 -64 -73 -125 -36 -60 -78 -132 -93 -160 -32
-59 -260 -453 -274 -475 -28 -44 -60 -112 -60 -129 0 -11 9 -25 19 -31 13 -7
517 -10 1560 -10 1386 0 1541 2 1555 16 9 8 16 20 16 25 0 9 -39 88 -60 119
-17 26 -180 312 -180 315 0 4 -98 170 -120 205 -6 8 -13 22 -17 30 -4 8 -76
133 -160 278 -84 144 -153 266 -153 269 0 4 -6 14 -14 22 -8 9 -26 39 -40 66
-15 28 -31 57 -36 65 -12 18 -95 162 -122 210 -11 19 -62 107 -113 195 -51 88
-108 187 -125 220 -18 33 -39 67 -46 76 -8 8 -14 18 -14 21 0 4 -54 99 -120
213 -66 113 -120 207 -120 209 0 2 -17 33 -37 68 -84 142 -103 154 -145 91z
m-206 -1183 c71 -22 120 -65 159 -140 33 -65 34 -236 2 -326 -35 -99 -110
-213 -205 -314 -102 -110 -145 -174 -154 -231 -11 -65 0 -69 191 -69 112 0
165 -4 173 -12 17 -17 16 -133 -2 -147 -10 -9 -93 -12 -281 -13 -246 -1 -268
0 -277 16 -16 28 -4 213 17 276 26 76 65 136 184 275 126 148 169 228 177 335
11 127 -21 190 -96 190 -69 0 -103 -56 -105 -173 -1 -37 -6 -72 -12 -78 -5 -5
-45 -9 -89 -7 l-79 3 1 110 c1 94 5 118 26 166 59 131 211 188 370 139z m714
-4 c83 -31 126 -71 159 -153 l25 -63 0 -411 c0 -395 -1 -412 -21 -462 -28 -70
-102 -138 -172 -160 -143 -45 -297 5 -361 116 -41 72 -46 127 -46 512 0 226 4
384 11 417 22 105 80 172 182 208 73 26 143 25 223 -4z"/>
<path d="M3525 3596 c-54 -24 -56 -35 -56 -447 0 -323 2 -383 16 -408 31 -60
107 -71 156 -22 l29 29 0 391 c0 224 -4 400 -10 415 -10 26 -57 56 -87 56 -10
-1 -32 -7 -48 -14z"/>
<path d="M5904 4232 c-16 -11 -38 -53 -63 -117 -12 -33 -44 -112 -71 -175 -26
-63 -62 -151 -80 -195 -18 -44 -41 -98 -50 -120 -10 -22 -27 -65 -39 -95 -12
-30 -28 -68 -36 -85 -14 -32 -61 -144 -120 -290 -20 -49 -49 -121 -65 -160
-16 -38 -47 -115 -70 -170 -23 -55 -47 -113 -55 -130 -7 -16 -23 -55 -35 -85
-11 -30 -25 -64 -30 -75 -10 -21 -72 -173 -111 -268 -17 -44 -21 -62 -13 -75
11 -17 105 -74 254 -155 41 -22 89 -49 105 -59 17 -9 48 -28 70 -40 22 -12 48
-27 57 -33 10 -5 92 -52 184 -103 124 -69 169 -90 179 -82 33 28 35 90 35
1299 0 1147 -1 1201 -18 1210 -10 5 -22 7 -28 3z"/>
<path d="M505 4217 c-3 -7 -4 -566 -3 -1243 3 -1295 2 -1264 45 -1264 12 0
146 73 203 110 8 6 22 13 30 17 16 7 414 236 440 253 8 5 40 23 70 39 96 50
106 78 65 169 -28 60 -44 97 -66 152 -12 30 -30 75 -41 100 -11 25 -24 54 -28
65 -5 11 -21 49 -35 85 -14 36 -30 74 -35 85 -5 11 -27 65 -50 120 -23 55 -54
132 -70 170 -16 39 -47 115 -70 170 -23 55 -45 109 -50 120 -4 11 -27 65 -50
120 -23 55 -45 109 -50 120 -5 11 -19 45 -31 75 -12 30 -45 111 -74 180 -29
69 -69 166 -89 215 -61 148 -65 155 -87 155 -11 0 -22 -6 -24 -13z"/>
<path d="M1680 2101 c-53 -15 -40 -38 190 -338 122 -158 245 -319 273 -356 63
-83 109 -142 459 -598 150 -196 324 -424 387 -508 129 -170 165 -201 233 -201
64 0 98 27 198 157 47 61 164 214 261 340 97 125 223 291 282 368 58 77 147
194 198 260 51 66 167 217 258 336 91 119 207 269 256 334 113 146 127 169
119 188 -3 8 -15 18 -27 21 -31 8 -3057 5 -3087 -3z"/>
<path d="M1375 2030 c-38 -22 -77 -43 -85 -47 -21 -10 -302 -171 -320 -183 -8
-6 -24 -14 -35 -19 -35 -15 -300 -172 -314 -186 -24 -23 7 -64 79 -103 36 -19
84 -48 108 -63 24 -16 45 -29 48 -29 2 0 70 -38 150 -85 81 -47 149 -85 152
-85 3 0 13 -6 21 -14 9 -7 48 -30 86 -51 39 -21 177 -100 308 -176 131 -77
240 -139 244 -139 4 0 14 -6 22 -14 9 -8 39 -26 66 -40 28 -15 57 -31 65 -36
30 -19 615 -357 630 -364 8 -4 24 -12 35 -19 124 -74 145 -80 145 -39 0 15
-318 444 -425 574 -8 9 -85 111 -172 225 -144 190 -317 416 -346 453 -7 8 -68
89 -137 180 -176 235 -229 300 -243 300 -7 0 -43 -18 -82 -40z"/>
<path d="M4968 2058 c-9 -7 -60 -71 -114 -143 -54 -71 -131 -173 -171 -225
-114 -148 -274 -357 -320 -419 -23 -31 -57 -76 -77 -101 -341 -440 -626 -819
-626 -834 0 -36 38 -24 174 55 78 45 254 146 391 226 138 79 257 148 265 153
8 5 128 74 265 153 138 79 394 227 570 329 373 216 391 227 427 245 37 19 88
71 88 89 0 15 -67 61 -155 108 -27 14 -57 30 -65 36 -35 22 -191 110 -195 110
-2 0 -84 46 -182 103 -236 136 -244 139 -275 115z"/>
</g>
</svg>
