<?xml version="1.0" standalone="no"?>
<!DOCTYPE svg PUBLIC "-//W3C//DTD SVG 20010904//EN"
 "http://www.w3.org/TR/2001/REC-SVG-20010904/DTD/svg10.dtd">
<svg version="1.0" xmlns="http://www.w3.org/2000/svg"
 width="512.000000pt" height="512.000000pt" viewBox="0 0 512.000000 512.000000"
 preserveAspectRatio="xMidYMid meet">

<g transform="translate(0.000000,512.000000) scale(0.100000,-0.100000)"
fill="#000000" stroke="none">
<path d="M700 4623 c-100 -35 -172 -109 -204 -209 -15 -44 -16 -222 -14 -1874
l3 -1825 27 -51 c40 -76 70 -107 140 -145 l63 -34 632 0 c622 0 632 0 659 21
53 39 69 71 69 134 0 63 -16 95 -69 134 -27 21 -39 21 -617 24 l-589 2 0 1760
0 1760 589 2 c578 3 590 3 617 24 53 39 69 71 69 134 0 63 -16 95 -69 134 -27
21 -39 21 -644 23 -541 2 -623 0 -662 -14z"/>
<path d="M3322 3770 c-18 -11 -41 -34 -52 -52 -24 -39 -27 -117 -6 -156 8 -15
197 -209 420 -432 l406 -405 -1354 -5 c-1349 -5 -1355 -5 -1382 -26 -53 -39
-69 -71 -69 -134 0 -63 16 -95 69 -134 27 -21 33 -21 1382 -26 l1354 -5 -406
-405 c-223 -223 -412 -417 -420 -432 -8 -15 -14 -49 -14 -75 0 -90 63 -153
153 -153 27 0 58 5 70 11 31 16 1135 1118 1153 1151 8 15 14 45 14 68 0 23 -6
53 -14 68 -18 33 -1122 1135 -1153 1151 -35 18 -114 13 -151 -9z"/>
</g>
</svg>
